<?xml version="1.0" encoding="UTF-8" standalone="no"?>
<!-- Created with Inkscape (http://www.inkscape.org/) -->

<svg
   xmlns:dc="http://purl.org/dc/elements/1.1/"
   xmlns:cc="http://creativecommons.org/ns#"
   xmlns:rdf="http://www.w3.org/1999/02/22-rdf-syntax-ns#"
   xmlns:svg="http://www.w3.org/2000/svg"
   xmlns="http://www.w3.org/2000/svg"
   xmlns:sodipodi="http://sodipodi.sourceforge.net/DTD/sodipodi-0.dtd"
   xmlns:inkscape="http://www.inkscape.org/namespaces/inkscape"
   width="72.135872mm"
   height="15.263315mm"
   viewBox="0 0 72.135872 15.263315"
   version="1.1"
   id="svg1001"
   inkscape:version="0.92.5 (0.92.5+69)"
   sodipodi:docname="logo.svg">
  <defs
     id="defs995" />
  <sodipodi:namedview
     id="base"
     pagecolor="#ffffff"
     bordercolor="#666666"
     borderopacity="1.0"
     inkscape:pageopacity="0.0"
     inkscape:pageshadow="2"
     inkscape:zoom="2.8"
     inkscape:cx="133.92693"
     inkscape:cy="21.545172"
     inkscape:document-units="mm"
     inkscape:current-layer="layer1"
     showgrid="false"
     inkscape:window-width="1920"
     inkscape:window-height="1027"
     inkscape:window-x="0"
     inkscape:window-y="0"
     inkscape:window-maximized="1"
     showguides="true"
     inkscape:guide-bbox="true">
    <sodipodi:guide
       position="12.728711,6.3476511"
       orientation="1,0"
       id="guide1586"
       inkscape:locked="false" />
  </sodipodi:namedview>
  <metadata
     id="metadata998">
    <rdf:RDF>
      <cc:Work
         rdf:about="">
        <dc:format>image/svg+xml</dc:format>
        <dc:type
           rdf:resource="http://purl.org/dc/dcmitype/StillImage" />
        <dc:title></dc:title>
      </cc:Work>
    </rdf:RDF>
  </metadata>
  <g
     inkscape:label="Layer 1"
     inkscape:groupmode="layer"
     id="layer1"
     transform="translate(128.29412,-59.558819)">
    <text
       xml:space="preserve"
       style="font-style:normal;font-weight:normal;font-size:10.58333302px;line-height:125%;font-family:sans-serif;letter-spacing:0px;word-spacing:0px;fill:#e7cc7f;fill-opacity:1;stroke:none;stroke-width:0.26458332px;stroke-linecap:butt;stroke-linejoin:miter;stroke-opacity:1"
       x="-115.80691"
       y="68.08268"
       id="text817"><tspan
         sodipodi:role="line"
         id="tspan815"
         x="-115.80691"
         y="68.08268"
         style="font-style:normal;font-variant:normal;font-weight:bold;font-stretch:normal;font-family:Lato;-inkscape-font-specification:'Lato Bold';fill:#bf9b30;fill-opacity:1;stroke-width:0.26458332px">alishamarsya</tspan></text>
    <path
       style="fill:#bf9a2f;fill-opacity:1;stroke-width:0.0047238"
       d="m -123.55408,74.778402 c -0.23677,-0.63767 -0.29264,-1.27149 -0.16774,-1.90301 0.12896,-0.65215 0.44331,-1.31389 1.0025,-2.11045 0.19454,-0.27711 0.36338,-0.50147 0.85384,-1.13451 0.47506,-0.61319 0.71826,-0.95175 0.94333,-1.31323 0.23453,-0.37668 0.41161,-0.73704 0.52572,-1.06993 0.0903,-0.26347 0.1457,-0.51472 0.17337,-0.78652 0.012,-0.1176 0.0119,-0.42096 0,-0.53851 -0.0317,-0.3109 -0.0988,-0.58772 -0.21412,-0.88336 -0.3191,-0.817771 -0.97357,-1.651637 -2.00217,-2.551002 -0.19513,-0.170605 -0.4347,-0.368304 -0.44631,-0.368304 -0.004,0 -0.0244,0.02306 -0.0477,0.05542 -0.14815,0.206124 -0.35437,0.476199 -0.8594,1.125532 -0.46844,0.602273 -0.64136,0.82895 -0.87205,1.143164 -0.70209,0.95629 -1.18025,1.75668 -1.48047,2.47812 -0.23071,0.55442 -0.35932,1.0658 -0.39191,1.55837 -0.006,0.0932 -0.006,0.33695 5e-5,0.42831 0.0365,0.53899 0.19559,1.01911 0.49132,1.48347 0.11221,0.17622 0.26209,0.36801 0.41916,0.53633 0.0321,0.0345 0.0574,0.0627 0.056,0.0627 -0.007,0 -0.29651,-0.22849 -0.45179,-0.35627 -0.48323,-0.39765 -0.91845,-0.81499 -1.23683,-1.18606 -0.49892,-0.58147 -0.81039,-1.13748 -0.94734,-1.69112 -0.0425,-0.17205 -0.0702,-0.35551 -0.0775,-0.5149 l -0.004,-0.0756 -0.003,0.0448 c -8.8e-4,0.0247 -0.003,-0.0285 -0.003,-0.1181 -1e-5,-0.0896 8.9e-4,-0.14383 0.003,-0.12045 0.003,0.0421 0.003,0.0418 0.006,-0.0311 0.0192,-0.41396 0.14623,-0.87224 0.37349,-1.34831 0.26364,-0.55226 0.66516,-1.15288 1.30421,-1.950928 0.26724,-0.33373 0.45602,-0.560544 1.09883,-1.320303 0.6959,-0.822492 0.98058,-1.165738 1.34383,-1.620265 0.32555,-0.407378 0.47919,-0.607254 0.86926,-1.130887 l 0.009,-0.01268 0.18186,0.1196 c 2.32736,1.530538 3.77127,2.964435 4.42294,4.392241 0.49862,1.092522 0.54363,2.207702 0.13808,3.422192 -0.30549,0.91484 -0.85653,1.89567 -1.77808,3.16495 -0.38659,0.53245 -0.7282,0.97764 -1.57133,2.04777 -0.85712,1.08788 -1.1986,1.52792 -1.53964,1.98401 -0.0515,0.0688 -0.0962,0.12792 -0.0993,0.13129 -0.004,0.005 -0.009,-0.004 -0.0237,-0.0425 z"
       id="path930"
       inkscape:connector-curvature="0" />
    <text
       id="text934"
       y="73.865143"
       x="-115.98589"
       style="font-style:normal;font-weight:normal;font-size:5.06210995px;line-height:125%;font-family:sans-serif;letter-spacing:0px;word-spacing:0px;fill:#d7be76;fill-opacity:1;stroke:none;stroke-width:0.12655275px;stroke-linecap:butt;stroke-linejoin:miter;stroke-opacity:1;"
       xml:space="preserve"><tspan
         style="font-style:normal;font-variant:normal;font-weight:normal;font-stretch:normal;font-family:Lato;-inkscape-font-specification:Lato;fill:#d7be76;fill-opacity:1;stroke-width:0.12655275px;"
         y="73.865143"
         x="-115.98589"
         id="tspan932"
         sodipodi:role="line">HOME GOOD STORE</tspan></text>
  </g>
</svg>
