<?xml version="1.0" encoding="UTF-8" standalone="no"?>
<!-- Created with Inkscape (http://www.inkscape.org/) -->

<svg
   xmlns:dc="http://purl.org/dc/elements/1.1/"
   xmlns:cc="http://creativecommons.org/ns#"
   xmlns:rdf="http://www.w3.org/1999/02/22-rdf-syntax-ns#"
   xmlns:svg="http://www.w3.org/2000/svg"
   xmlns="http://www.w3.org/2000/svg"
   xmlns:sodipodi="http://sodipodi.sourceforge.net/DTD/sodipodi-0.dtd"
   xmlns:inkscape="http://www.inkscape.org/namespaces/inkscape"
   width="125.94398mm"
   height="125.94398mm"
   viewBox="0 0 125.94398 125.94398"
   version="1.1"
   id="svg8"
   inkscape:version="0.92.5 (0.92.5+69)"
   sodipodi:docname="logo_kaostum.svg">
  <defs
     id="defs2" />
  <sodipodi:namedview
     id="base"
     pagecolor="#ffffff"
     bordercolor="#666666"
     borderopacity="1.0"
     inkscape:pageopacity="0.0"
     inkscape:pageshadow="2"
     inkscape:zoom="0.69999999"
     inkscape:cx="206.24929"
     inkscape:cy="60.616531"
     inkscape:document-units="mm"
     inkscape:current-layer="layer1"
     showgrid="false"
     inkscape:window-width="1920"
     inkscape:window-height="1027"
     inkscape:window-x="0"
     inkscape:window-y="0"
     inkscape:window-maximized="1" />
  <metadata
     id="metadata5">
    <rdf:RDF>
      <cc:Work
         rdf:about="">
        <dc:format>image/svg+xml</dc:format>
        <dc:type
           rdf:resource="http://purl.org/dc/dcmitype/StillImage" />
        <dc:title />
      </cc:Work>
    </rdf:RDF>
  </metadata>
  <g
     inkscape:label="Layer 1"
     inkscape:groupmode="layer"
     id="layer1"
     transform="translate(258.07874,3.3073311)">
    <circle
       style="opacity:1;fill:#ffffff;fill-opacity:1;stroke:#bf9a2f;stroke-width:3;stroke-linecap:square;stroke-linejoin:round;stroke-miterlimit:4;stroke-dasharray:none;stroke-opacity:1"
       id="path819"
       cx="-195.10675"
       cy="59.664658"
       r="61.471989" />
    <path
       style="fill:#bf9a2f;fill-opacity:1;stroke-width:0.03090924"
       d="m -196.88621,109.31472 c -1.54925,-4.17246 -1.91482,-8.31974 -1.09756,-12.451961 0.84382,-4.267215 2.90071,-8.597178 6.55965,-13.809308 1.27293,-1.813214 2.37771,-3.281269 5.58693,-7.423439 3.10846,-4.012286 4.69979,-6.227585 6.17249,-8.592857 1.5346,-2.46473 2.69329,-4.822674 3.43994,-7.000872 0.59086,-1.723964 0.95337,-3.367967 1.13441,-5.146436 0.0785,-0.769492 0.0779,-2.754467 0,-3.523632 -0.20742,-2.034312 -0.64647,-3.845628 -1.40105,-5.780089 -2.08797,-5.350921 -6.37036,-10.807155 -13.1008,-16.69197 -1.27679,-1.11632 -2.84437,-2.409923 -2.92034,-2.409923 -0.0262,0 -0.15965,0.150888 -0.31211,0.362629 -0.96939,1.348732 -2.31875,3.115913 -5.62331,7.364694 -3.06515,3.940852 -4.19661,5.424067 -5.70608,7.480063 -4.59398,6.257292 -7.72274,11.494483 -9.68717,16.215081 -1.5096,3.627737 -2.35113,6.973849 -2.56437,10.196881 -0.0392,0.609836 -0.0392,2.204765 3.2e-4,2.802561 0.23883,3.526773 1.27981,6.668342 3.21485,9.706788 0.73423,1.15306 1.71493,2.408 2.74269,3.509369 0.21005,0.225744 0.37559,0.410264 0.36643,0.410264 -0.0458,0 -1.94016,-1.495078 -2.9562,-2.331182 -3.16192,-2.601942 -6.0097,-5.332722 -8.09295,-7.760745 -3.26458,-3.804732 -5.30262,-7.442872 -6.19872,-11.065504 -0.2781,-1.125775 -0.45935,-2.326208 -0.50711,-3.369144 l -0.0262,-0.494674 -0.0197,0.29314 c -0.006,0.161619 -0.0197,-0.186485 -0.0197,-0.772764 -6e-5,-0.58628 0.006,-0.941122 0.0197,-0.788141 0.0197,0.275474 0.0197,0.27351 0.0392,-0.203497 0.12563,-2.708664 0.95682,-5.707326 2.44385,-8.822395 1.72508,-3.613602 4.35234,-7.543639 8.53384,-12.765506 1.74862,-2.183696 2.98387,-3.667807 7.18998,-8.639138 4.55348,-5.381811 6.41622,-7.627772 8.79307,-10.601879 2.13018,-2.665596 3.13548,-3.973444 5.68783,-7.3997316 l 0.0589,-0.08297 1.18996,0.7825786 c 15.22861,10.014768 24.67655,19.397185 28.94062,28.739747 3.26262,7.148698 3.55713,14.445655 0.90349,22.392426 -1.99891,5.986073 -5.60453,12.403938 -11.6345,20.709216 -2.52957,3.483979 -4.76484,6.396992 -10.28169,13.399174 -5.60838,7.118326 -7.8428,9.997636 -10.07432,12.981966 -0.33698,0.45018 -0.62946,0.83702 -0.64974,0.85907 -0.0262,0.0328 -0.0589,-0.0262 -0.15508,-0.27809 z"
       id="path930"
       inkscape:connector-curvature="0" />
  </g>
</svg>
