<?xml version="1.0" encoding="UTF-8" standalone="no"?>
<!-- Generator: Adobe Illustrator 18.0.0, SVG Export Plug-In . SVG Version: 6.00 Build 0)  -->

<svg
   xmlns:dc="http://purl.org/dc/elements/1.1/"
   xmlns:cc="http://creativecommons.org/ns#"
   xmlns:rdf="http://www.w3.org/1999/02/22-rdf-syntax-ns#"
   xmlns:svg="http://www.w3.org/2000/svg"
   xmlns="http://www.w3.org/2000/svg"
   xmlns:sodipodi="http://sodipodi.sourceforge.net/DTD/sodipodi-0.dtd"
   xmlns:inkscape="http://www.inkscape.org/namespaces/inkscape"
   version="1.1"
   id="Capa_1"
   x="0px"
   y="0px"
   viewBox="0 0 192.904 192.904"
   style="enable-background:new 0 0 192.904 192.904;"
   xml:space="preserve"
   sodipodi:docname="search.svg"
   inkscape:version="0.92.5 (0.92.5+69)"><metadata
   id="metadata39"><rdf:RDF><cc:Work
       rdf:about=""><dc:format>image/svg+xml</dc:format><dc:type
         rdf:resource="http://purl.org/dc/dcmitype/StillImage" /></cc:Work></rdf:RDF></metadata><defs
   id="defs37" /><sodipodi:namedview
   pagecolor="#ffffff"
   bordercolor="#666666"
   borderopacity="1"
   objecttolerance="10"
   gridtolerance="10"
   guidetolerance="10"
   inkscape:pageopacity="0"
   inkscape:pageshadow="2"
   inkscape:window-width="1920"
   inkscape:window-height="1027"
   id="namedview35"
   showgrid="false"
   inkscape:zoom="1.2234064"
   inkscape:cx="-48.226004"
   inkscape:cy="96.452002"
   inkscape:window-x="0"
   inkscape:window-y="0"
   inkscape:window-maximized="1"
   inkscape:current-layer="Capa_1" />
<path
   d="M190.707,180.101l-47.078-47.077c11.702-14.072,18.752-32.142,18.752-51.831C162.381,36.423,125.959,0,81.191,0  C36.422,0,0,36.423,0,81.193c0,44.767,36.422,81.187,81.191,81.187c19.688,0,37.759-7.049,51.831-18.751l47.079,47.078  c1.464,1.465,3.384,2.197,5.303,2.197c1.919,0,3.839-0.732,5.304-2.197C193.637,187.778,193.637,183.03,190.707,180.101z M15,81.193  C15,44.694,44.693,15,81.191,15c36.497,0,66.189,29.694,66.189,66.193c0,36.496-29.692,66.187-66.189,66.187  C44.693,147.38,15,117.689,15,81.193z"
   id="path2"
   style="fill:#000000" />
<g
   id="g4">
</g>
<g
   id="g6">
</g>
<g
   id="g8">
</g>
<g
   id="g10">
</g>
<g
   id="g12">
</g>
<g
   id="g14">
</g>
<g
   id="g16">
</g>
<g
   id="g18">
</g>
<g
   id="g20">
</g>
<g
   id="g22">
</g>
<g
   id="g24">
</g>
<g
   id="g26">
</g>
<g
   id="g28">
</g>
<g
   id="g30">
</g>
<g
   id="g32">
</g>
</svg>